PathFileType	4	(X/Y/Z)	C:\Users\dbl\Desktop\LZH\BX\Trimmed_bx_y_0_1801.trc
DataRate	CameraRate	NumFrames	NumMarkers	Units	OrigDataRate	OrigDataStartFrame	OrigNumFrames
50.00	50.00	      5	43	mm	50.00	1107	      1475
Frame#	Time	Top.Head			R.Acromium			L.Acromium			Sternum			R.ASIS			L.ASIS			V.Sacral			R.Thigh.Upper			R.Thigh.Front			R.Thigh.Rear			R.Knee.Lat			R.Knee.Med			R.Shank.Upper			R.Shank.Front			R.Shank.Rear			R.Ankle.Lat			R.Midfoot.Lat			R.Toe.Lat			R.Toe.Tip			R.Toe.Med			R.Ankle.Med			R.Midfoot.Sup			R.Heel			L.Thigh.Upper			L.Thigh.Front			L.Thigh.Rear			L.Knee.Lat			L.Knee.Med			L.Shank.Upper			L.Shank.Front			L.Shank.Rear			L.Ankle.Lat			L.Midfoot.Lat			L.Toe.Lat			L.Toe.Tip			L.Toe.Med			L.Ankle.Med			L.Midfoot.Sup			L.Heel			origin1 front left			origin2 front right			origin 3 back right			origin 4 back leftt			
		X1	Y1	Z1	X2	Y2	Z2	X3	Y3	Z3	X4	Y4	Z4	X5	Y5	Z5	X6	Y6	Z6	X7	Y7	Z7	X8	Y8	Z8	X9	Y9	Z9	X10	Y10	Z10	X11	Y11	Z11	X12	Y12	Z12	X13	Y13	Z13	X14	Y14	Z14	X15	Y15	Z15	X16	Y16	Z16	X17	Y17	Z17	X18	Y18	Z18	X19	Y19	Z19	X20	Y20	Z20	X21	Y21	Z21	X22	Y22	Z22	X23	Y23	Z23	X24	Y24	Z24	X25	Y25	Z25	X26	Y26	Z26	X27	Y27	Z27	X28	Y28	Z28	X29	Y29	Z29	X30	Y30	Z30	X31	Y31	Z31	X32	Y32	Z32	X33	Y33	Z33	X34	Y34	Z34	X35	Y35	Z35	X36	Y36	Z36	X37	Y37	Z37	X38	Y38	Z38	X39	Y39	Z39	X40	Y40	Z40	X41	Y41	Z41	X42	Y42	Z42	X43	Y43	Z43	

1107	22.120	-242.48868	290.35492	1332.56494	-345.05051	81.38278	1070.07214	-377.00671	470.40350	1070.46619	-375.35544	270.42075	1065.15002	-668.71301	132.74194	934.95667	-664.41144	316.37671	1024.62219	-866.59595	237.18848	872.12061	-657.86499	86.04410	741.70551	-599.69171	152.10973	748.58118	-590.11682	86.03371	635.91553	-478.50992	94.48526	531.68903	-432.87616	193.68204	485.21478	-506.03186	96.39034	485.01434	-413.65576	148.72969	495.77756	-572.15173	106.41840	445.69318	-666.35278	157.04248	217.90689	-610.80127	89.74390	175.23265	-568.14264	63.35546	170.25526	-493.34631	90.50712	159.98051	-529.18286	147.16225	159.36859	-612.44128	229.61836	202.64302	-586.19684	196.86931	158.58261	-709.96747	226.48932	173.31729	-656.68762	447.00745	742.23047	-595.78497	387.79480	747.64960	-587.66644	465.97446	637.94843	-500.67505	449.58932	547.68695	-433.27875	349.46609	525.67334	-487.15259	451.28036	503.84552	-434.06244	408.13800	475.92764	-552.46887	442.61072	471.81613	-665.62854	406.06613	211.63504	-587.00354	464.66019	166.29343	-548.26526	476.34320	161.99840	-486.40042	429.90927	167.70581	-523.32562	387.47794	176.43224	-625.87762	320.99011	197.54311	-588.74414	344.68851	163.03380	-727.11865	332.19382	167.09120	-443.94040	448.74625	148.14343	-450.20755	76.24413	143.29062	-806.55597	82.32954	142.76607	-798.70325	457.87607	145.49580	
1108	22.140	-243.13855	289.60367	1333.17712	-345.14963	80.98838	1070.17664	-376.77054	469.99814	1070.92920	-374.98611	270.70117	1063.26331	-669.15845	132.75732	935.28906	-664.63684	316.29291	1024.40332	-866.40747	237.26019	872.01642	-657.81458	85.99342	741.68610	-599.63507	152.08934	748.51324	-589.98175	86.55886	635.33374	-478.42505	94.44962	531.64966	-432.56042	193.72545	484.81274	-505.93613	96.47916	484.88440	-413.60922	148.71442	495.72034	-571.99158	106.41513	445.64212	-666.30457	157.09061	217.95792	-610.78217	89.74484	175.23676	-568.16443	63.35889	170.24892	-493.40625	90.40138	160.06026	-529.14490	147.19537	159.37129	-612.44568	229.62817	202.61833	-586.10663	197.00522	158.57397	-709.91119	226.45349	173.25372	-656.34344	447.04947	742.35956	-595.63568	387.71375	747.55194	-587.33600	465.87527	637.95648	-500.45255	449.44824	547.66150	-433.12592	349.38208	525.54810	-486.81934	451.07706	503.72171	-433.95673	408.01706	475.85541	-552.27856	442.43317	471.62158	-665.56531	406.03333	211.66472	-586.97119	464.61118	166.40231	-548.21667	476.17441	162.16537	-486.36792	429.92792	167.69406	-523.30389	387.46136	176.42165	-625.74805	320.80164	197.52975	-588.72247	344.63779	162.96501	-727.08142	332.17551	167.10838	-443.94388	448.74884	148.15092	-450.20294	76.23557	143.28618	-806.60144	82.33288	142.75139	-798.68542	457.94553	145.55495	
1109	22.160	-243.76740	288.85046	1333.78076	-345.25467	80.57646	1070.30640	-376.45309	469.60925	1071.39905	-374.64728	270.96951	1061.46570	-669.57898	132.77330	935.67505	-664.83356	316.22424	1024.19324	-866.19336	237.37897	871.93079	-657.76178	85.94409	741.67181	-599.53241	152.06805	748.44098	-589.85681	87.07647	634.80145	-478.34607	94.38997	531.60590	-432.29807	193.77504	484.45984	-505.85672	96.53069	484.77014	-413.54309	148.67351	495.64160	-571.81403	106.39267	445.58295	-666.25220	157.14113	218.02551	-610.76233	89.74258	175.24173	-568.18225	63.35797	170.24203	-493.46774	90.29089	160.14494	-529.11749	147.22000	159.36705	-612.45569	229.63670	202.58884	-585.92554	197.21619	158.58231	-709.84259	226.42419	173.23622	-655.92688	447.12708	742.46875	-595.40594	387.64615	747.46655	-586.98267	465.76294	637.92255	-500.16989	449.31223	547.61475	-433.05316	349.38110	525.26251	-486.49246	450.88593	503.57562	-433.80072	407.82425	475.75308	-552.05853	442.21274	471.41934	-665.49615	405.99445	211.70984	-586.92407	464.55362	166.50620	-548.16943	476.04150	162.32263	-486.34653	429.94553	167.68034	-523.26190	387.42676	176.40617	-625.63672	320.65082	197.49701	-588.65308	344.56577	162.91463	-727.05389	332.16205	167.12448	-443.94955	448.74814	148.16135	-450.19724	76.22534	143.28664	-806.58264	82.35754	142.74265	-798.68787	457.98499	145.60634	
1110	22.180	-244.34637	288.12027	1334.34253	-345.34860	80.14297	1070.46509	-376.07837	469.22940	1071.82666	-374.33887	271.22562	1059.75793	-669.97437	132.78978	936.11334	-665.00165	316.17053	1023.99188	-865.97443	237.52673	871.87408	-657.70551	85.90885	741.65576	-599.38751	152.03621	748.37439	-589.74219	87.58598	634.31854	-478.26733	94.31445	531.55505	-432.08813	193.83080	484.15576	-505.79419	96.53513	484.68118	-413.44446	148.60323	495.55194	-571.64038	106.35931	445.51923	-666.19873	157.18355	218.09656	-610.74573	89.73849	175.25021	-568.19507	63.34996	170.22897	-493.52975	90.18444	160.22223	-529.09393	147.23422	159.36488	-612.45746	229.64844	202.56654	-585.68073	197.48634	158.59836	-709.76367	226.43050	173.27592	-655.45990	447.19724	742.52551	-595.10498	387.57193	747.38934	-586.62885	465.64130	637.83643	-499.83417	449.18585	547.55298	-433.06903	349.42935	524.83691	-486.19708	450.69705	503.43445	-433.58923	407.54578	475.62512	-551.81860	441.96118	471.23364	-665.41400	405.94080	211.75595	-586.85583	464.46848	166.61189	-548.13544	475.94104	162.45802	-486.33801	429.96252	167.66936	-523.18817	387.36902	176.38466	-625.55237	320.52255	197.45287	-588.55304	344.49103	162.87982	-727.03400	332.15082	167.13528	-443.95609	448.74484	148.17239	-450.19092	76.21432	143.29071	-806.51642	82.39448	142.74117	-798.70453	457.98868	145.64424	
1111	22.200	-244.85220	287.43661	1334.84131	-345.41318	79.68603	1070.65649	-375.66605	468.84900	1072.16333	-374.06091	271.46939	1058.14111	-670.34442	132.80672	936.60291	-665.14124	316.13168	1023.79944	-865.76343	237.68637	871.85522	-657.64539	85.89017	741.64087	-599.20837	151.98743	748.32532	-589.63800	88.08685	633.88513	-478.17960	94.22758	531.49634	-431.92981	193.89265	483.90015	-505.74146	96.48940	484.62015	-413.30807	148.50105	495.46170	-571.49084	106.32168	445.45547	-666.14801	157.21111	218.15408	-610.73676	89.73403	175.26015	-568.20282	63.33396	170.20375	-493.58917	90.09242	160.28296	-529.06635	147.23827	159.37056	-612.43970	229.66722	202.56587	-585.42322	197.76868	158.60931	-709.68390	226.48869	173.38017	-654.96851	447.21823	742.51477	-594.75262	387.47336	747.31024	-586.27863	465.51532	637.70514	-499.46481	449.06165	547.47839	-433.11786	349.45325	524.36115	-485.93402	450.49487	503.31860	-433.32660	407.18906	475.47998	-551.56635	441.70145	471.09064	-665.31464	405.87186	211.79024	-586.77094	464.34598	166.71667	-548.11920	475.86505	162.56419	-486.34006	429.97681	167.66386	-523.07935	387.28851	176.35466	-625.50055	320.40210	197.39955	-588.44867	344.43002	162.85120	-727.01624	332.13986	167.14017	-443.96191	448.74045	148.18159	-450.18546	76.20468	143.29597	-806.42731	82.43198	142.74742	-798.72400	457.96896	145.66766	
